<?xml version="1.0" encoding="utf-8" standalone="no"?>
<!DOCTYPE svg PUBLIC "-//W3C//DTD SVG 1.1//EN"
  "http://www.w3.org/Graphics/SVG/1.1/DTD/svg11.dtd">
<!-- Created with matplotlib (https://matplotlib.org/) -->
<svg height="135.161913pt" version="1.1" viewBox="0 0 237.744475 135.161913" width="237.744475pt" xmlns="http://www.w3.org/2000/svg" xmlns:xlink="http://www.w3.org/1999/xlink">
 <metadata>
  <rdf:RDF xmlns:cc="http://creativecommons.org/ns#" xmlns:dc="http://purl.org/dc/elements/1.1/" xmlns:rdf="http://www.w3.org/1999/02/22-rdf-syntax-ns#">
   <cc:Work>
    <dc:type rdf:resource="http://purl.org/dc/dcmitype/StillImage"/>
    <dc:date>2020-09-03T08:32:03.907840</dc:date>
    <dc:format>image/svg+xml</dc:format>
    <dc:creator>
     <cc:Agent>
      <dc:title>Matplotlib v3.3.0, https://matplotlib.org/</dc:title>
     </cc:Agent>
    </dc:creator>
   </cc:Work>
  </rdf:RDF>
 </metadata>
 <defs>
  <style type="text/css">*{stroke-linecap:butt;stroke-linejoin:round;}</style>
 </defs>
 <g id="figure_1">
  <g id="patch_1">
   <path d="M 0 135.161913 
L 237.744475 135.161913 
L 237.744475 0 
L 0 0 
z
" style="fill:#fdf6e3;"/>
  </g>
  <g id="axes_1">
   <g id="patch_2">
    <path d="M 82.56 124.101913 
L 230.184475 124.101913 
L 230.184475 7.56 
L 82.56 7.56 
z
" style="fill:#eee8d5;"/>
   </g>
   <g id="matplotlib.axis_1">
    <g id="xtick_1">
     <g id="line2d_1">
      <path clip-path="url(#p107831fe3b)" d="M 82.56 124.101913 
L 82.56 7.56 
" style="fill:none;stroke:#fdf6e3;"/>
     </g>
     <g id="line2d_2">
      <defs>
       <path d="M 0 0 
L 0 3.5 
" id="m7433500c2c" style="stroke:#657b83;stroke-width:0.8;"/>
      </defs>
      <g>
       <use style="fill:#657b83;stroke:#657b83;stroke-width:0.8;" x="82.56" xlink:href="#m7433500c2c" y="124.101913"/>
      </g>
     </g>
    </g>
    <g id="xtick_2">
     <g id="line2d_3">
      <path clip-path="url(#p107831fe3b)" d="M 112.084895 124.101913 
L 112.084895 7.56 
" style="fill:none;stroke:#fdf6e3;"/>
     </g>
     <g id="line2d_4">
      <g>
       <use style="fill:#657b83;stroke:#657b83;stroke-width:0.8;" x="112.084895" xlink:href="#m7433500c2c" y="124.101913"/>
      </g>
     </g>
    </g>
    <g id="xtick_3">
     <g id="line2d_5">
      <path clip-path="url(#p107831fe3b)" d="M 141.60979 124.101913 
L 141.60979 7.56 
" style="fill:none;stroke:#fdf6e3;"/>
     </g>
     <g id="line2d_6">
      <g>
       <use style="fill:#657b83;stroke:#657b83;stroke-width:0.8;" x="141.60979" xlink:href="#m7433500c2c" y="124.101913"/>
      </g>
     </g>
    </g>
    <g id="xtick_4">
     <g id="line2d_7">
      <path clip-path="url(#p107831fe3b)" d="M 171.134685 124.101913 
L 171.134685 7.56 
" style="fill:none;stroke:#fdf6e3;"/>
     </g>
     <g id="line2d_8">
      <g>
       <use style="fill:#657b83;stroke:#657b83;stroke-width:0.8;" x="171.134685" xlink:href="#m7433500c2c" y="124.101913"/>
      </g>
     </g>
    </g>
    <g id="xtick_5">
     <g id="line2d_9">
      <path clip-path="url(#p107831fe3b)" d="M 200.65958 124.101913 
L 200.65958 7.56 
" style="fill:none;stroke:#fdf6e3;"/>
     </g>
     <g id="line2d_10">
      <g>
       <use style="fill:#657b83;stroke:#657b83;stroke-width:0.8;" x="200.65958" xlink:href="#m7433500c2c" y="124.101913"/>
      </g>
     </g>
    </g>
    <g id="xtick_6">
     <g id="line2d_11">
      <path clip-path="url(#p107831fe3b)" d="M 230.184475 124.101913 
L 230.184475 7.56 
" style="fill:none;stroke:#fdf6e3;"/>
     </g>
     <g id="line2d_12">
      <g>
       <use style="fill:#657b83;stroke:#657b83;stroke-width:0.8;" x="230.184475" xlink:href="#m7433500c2c" y="124.101913"/>
      </g>
     </g>
    </g>
   </g>
   <g id="matplotlib.axis_2">
    <g id="ytick_1">
     <g id="line2d_13">
      <path clip-path="url(#p107831fe3b)" d="M 82.56 112.447721 
L 230.184475 112.447721 
" style="fill:none;stroke:#fdf6e3;"/>
     </g>
     <g id="line2d_14">
      <defs>
       <path d="M 0 0 
L -3.5 0 
" id="mfc7d523001" style="stroke:#657b83;stroke-width:0.8;"/>
      </defs>
      <g>
       <use style="fill:#657b83;stroke:#657b83;stroke-width:0.8;" x="82.56" xlink:href="#mfc7d523001" y="112.447721"/>
      </g>
     </g>
     <g id="text_1">
      <!--              vba -->
      <g style="fill:#657b83;" transform="translate(8.1325 115.107175)scale(0.07 -0.07)">
       <defs>
        <path id="DejaVuSansMono-Bold-32"/>
        <path d="M 56.296875 54.6875 
L 38.921875 0 
L 21.296875 0 
L 3.90625 54.6875 
L 18.40625 54.6875 
L 30.078125 12.015625 
L 41.796875 54.6875 
z
" id="DejaVuSansMono-Bold-118"/>
        <path d="M 41.5 27.203125 
Q 41.5 35.109375 38.859375 39.59375 
Q 36.234375 44.09375 31.59375 44.09375 
Q 26.953125 44.09375 24.265625 39.59375 
Q 21.578125 35.109375 21.578125 27.203125 
Q 21.578125 19.28125 24.265625 14.78125 
Q 26.953125 10.296875 31.59375 10.296875 
Q 36.234375 10.296875 38.859375 14.78125 
Q 41.5 19.28125 41.5 27.203125 
z
M 21.578125 46.921875 
Q 24.21875 51.46875 27.703125 53.734375 
Q 31.203125 56 35.59375 56 
Q 45.3125 56 50.5625 48.578125 
Q 55.8125 41.15625 55.8125 27.296875 
Q 55.8125 13.625 50.625 6.09375 
Q 45.453125 -1.421875 36.078125 -1.421875 
Q 31.15625 -1.421875 27.484375 0.96875 
Q 23.828125 3.375 21.578125 8.109375 
L 21.578125 0 
L 7.328125 0 
L 7.328125 75.984375 
L 21.578125 75.984375 
z
" id="DejaVuSansMono-Bold-98"/>
        <path d="M 34.1875 25.6875 
Q 26.171875 25.6875 23 23.625 
Q 19.828125 21.578125 19.828125 16.609375 
Q 19.828125 12.890625 22.015625 10.6875 
Q 24.21875 8.5 27.984375 8.5 
Q 33.640625 8.5 36.765625 12.765625 
Q 39.890625 17.046875 39.890625 24.703125 
L 39.890625 25.6875 
z
M 54.109375 31.203125 
L 54.109375 0 
L 39.890625 0 
L 39.890625 6.109375 
Q 37.3125 2.484375 33.25 0.53125 
Q 29.203125 -1.421875 24.3125 -1.421875 
Q 14.984375 -1.421875 9.78125 3.515625 
Q 4.59375 8.453125 4.59375 17.28125 
Q 4.59375 26.859375 10.796875 31.421875 
Q 17 35.984375 29.984375 35.984375 
L 39.890625 35.984375 
L 39.890625 38.375 
Q 39.890625 41.84375 37.375 43.625 
Q 34.859375 45.40625 29.984375 45.40625 
Q 24.859375 45.40625 20.046875 44.109375 
Q 15.234375 42.828125 10.015625 39.984375 
L 10.015625 52.203125 
Q 14.75 54.15625 19.625 55.078125 
Q 24.515625 56 29.984375 56 
Q 43.3125 56 48.703125 50.578125 
Q 54.109375 45.171875 54.109375 31.203125 
z
" id="DejaVuSansMono-Bold-97"/>
       </defs>
       <use xlink:href="#DejaVuSansMono-Bold-32"/>
       <use x="60.205078" xlink:href="#DejaVuSansMono-Bold-32"/>
       <use x="120.410156" xlink:href="#DejaVuSansMono-Bold-32"/>
       <use x="180.615234" xlink:href="#DejaVuSansMono-Bold-32"/>
       <use x="240.820312" xlink:href="#DejaVuSansMono-Bold-32"/>
       <use x="301.025391" xlink:href="#DejaVuSansMono-Bold-32"/>
       <use x="361.230469" xlink:href="#DejaVuSansMono-Bold-32"/>
       <use x="421.435547" xlink:href="#DejaVuSansMono-Bold-32"/>
       <use x="481.640625" xlink:href="#DejaVuSansMono-Bold-32"/>
       <use x="541.845703" xlink:href="#DejaVuSansMono-Bold-32"/>
       <use x="602.050781" xlink:href="#DejaVuSansMono-Bold-32"/>
       <use x="662.255859" xlink:href="#DejaVuSansMono-Bold-32"/>
       <use x="722.460938" xlink:href="#DejaVuSansMono-Bold-32"/>
       <use x="782.666016" xlink:href="#DejaVuSansMono-Bold-118"/>
       <use x="842.871094" xlink:href="#DejaVuSansMono-Bold-98"/>
       <use x="903.076172" xlink:href="#DejaVuSansMono-Bold-97"/>
      </g>
     </g>
    </g>
    <g id="ytick_2">
     <g id="line2d_15">
      <path clip-path="url(#p107831fe3b)" d="M 82.56 89.139339 
L 230.184475 89.139339 
" style="fill:none;stroke:#fdf6e3;"/>
     </g>
     <g id="line2d_16">
      <g>
       <use style="fill:#657b83;stroke:#657b83;stroke-width:0.8;" x="82.56" xlink:href="#mfc7d523001" y="89.139339"/>
      </g>
     </g>
     <g id="text_2">
      <!--                R -->
      <g style="fill:#657b83;" transform="translate(8.1325 91.798792)scale(0.07 -0.07)">
       <defs>
        <path d="M 39.40625 34.421875 
Q 41.546875 33.984375 43.140625 32.390625 
Q 44.734375 30.8125 47.015625 26.21875 
L 60.203125 0 
L 44.390625 0 
L 35.59375 18.40625 
Q 35.203125 19.1875 34.578125 20.5625 
Q 30.71875 28.8125 25.484375 28.8125 
L 20.90625 28.8125 
L 20.90625 0 
L 6.5 0 
L 6.5 72.90625 
L 27.296875 72.90625 
Q 41.359375 72.90625 47.484375 67.921875 
Q 53.609375 62.9375 53.609375 51.703125 
Q 53.609375 44.1875 49.953125 39.734375 
Q 46.296875 35.296875 39.40625 34.421875 
z
M 20.90625 60.796875 
L 20.90625 40.921875 
L 27.6875 40.921875 
Q 33.59375 40.921875 36.15625 43.234375 
Q 38.71875 45.5625 38.71875 50.875 
Q 38.71875 56.203125 36.171875 58.5 
Q 33.640625 60.796875 27.6875 60.796875 
z
" id="DejaVuSansMono-Bold-82"/>
       </defs>
       <use xlink:href="#DejaVuSansMono-Bold-32"/>
       <use x="60.205078" xlink:href="#DejaVuSansMono-Bold-32"/>
       <use x="120.410156" xlink:href="#DejaVuSansMono-Bold-32"/>
       <use x="180.615234" xlink:href="#DejaVuSansMono-Bold-32"/>
       <use x="240.820312" xlink:href="#DejaVuSansMono-Bold-32"/>
       <use x="301.025391" xlink:href="#DejaVuSansMono-Bold-32"/>
       <use x="361.230469" xlink:href="#DejaVuSansMono-Bold-32"/>
       <use x="421.435547" xlink:href="#DejaVuSansMono-Bold-32"/>
       <use x="481.640625" xlink:href="#DejaVuSansMono-Bold-32"/>
       <use x="541.845703" xlink:href="#DejaVuSansMono-Bold-32"/>
       <use x="602.050781" xlink:href="#DejaVuSansMono-Bold-32"/>
       <use x="662.255859" xlink:href="#DejaVuSansMono-Bold-32"/>
       <use x="722.460938" xlink:href="#DejaVuSansMono-Bold-32"/>
       <use x="782.666016" xlink:href="#DejaVuSansMono-Bold-32"/>
       <use x="842.871094" xlink:href="#DejaVuSansMono-Bold-32"/>
       <use x="903.076172" xlink:href="#DejaVuSansMono-Bold-82"/>
      </g>
     </g>
    </g>
    <g id="ytick_3">
     <g id="line2d_17">
      <path clip-path="url(#p107831fe3b)" d="M 82.56 65.830956 
L 230.184475 65.830956 
" style="fill:none;stroke:#fdf6e3;"/>
     </g>
     <g id="line2d_18">
      <g>
       <use style="fill:#657b83;stroke:#657b83;stroke-width:0.8;" x="82.56" xlink:href="#mfc7d523001" y="65.830956"/>
      </g>
     </g>
     <g id="text_3">
      <!--              sql -->
      <g style="fill:#657b83;" transform="translate(8.1325 68.490409)scale(0.07 -0.07)">
       <defs>
        <path d="M 48.390625 52.984375 
L 48.390625 40.484375 
Q 44.4375 43.015625 40.15625 44.3125 
Q 35.890625 45.609375 31.59375 45.609375 
Q 26.8125 45.609375 24.359375 44.21875 
Q 21.921875 42.828125 21.921875 40.09375 
Q 21.921875 36.1875 32.375 33.734375 
L 32.90625 33.59375 
L 37.015625 32.625 
Q 44.828125 30.765625 48.453125 26.640625 
Q 52.09375 22.515625 52.09375 15.484375 
Q 52.09375 7.03125 46.546875 2.796875 
Q 41.015625 -1.421875 29.890625 -1.421875 
Q 24.953125 -1.421875 19.765625 -0.5625 
Q 14.59375 0.296875 9.28125 2 
L 9.28125 14.5 
Q 14.015625 11.8125 18.921875 10.390625 
Q 23.828125 8.984375 28.421875 8.984375 
Q 33.453125 8.984375 36.03125 10.453125 
Q 38.625 11.921875 38.625 14.703125 
Q 38.625 17.4375 36.796875 18.890625 
Q 34.96875 20.359375 28.078125 22.015625 
L 24.125 22.90625 
Q 15.921875 24.75 12.15625 28.703125 
Q 8.40625 32.671875 8.40625 39.3125 
Q 8.40625 47.21875 14.109375 51.609375 
Q 19.828125 56 30.171875 56 
Q 34.8125 56 39.421875 55.25 
Q 44.046875 54.5 48.390625 52.984375 
z
" id="DejaVuSansMono-Bold-115"/>
        <path d="M 18.703125 27.390625 
Q 18.703125 19.484375 21.328125 14.984375 
Q 23.96875 10.5 28.609375 10.5 
Q 33.25 10.5 35.9375 14.984375 
Q 38.625 19.484375 38.625 27.390625 
Q 38.625 35.296875 35.9375 39.78125 
Q 33.25 44.28125 28.609375 44.28125 
Q 23.96875 44.28125 21.328125 39.78125 
Q 18.703125 35.296875 18.703125 27.390625 
z
M 38.625 7.71875 
Q 35.984375 3.125 32.484375 0.84375 
Q 29 -1.421875 24.609375 -1.421875 
Q 14.890625 -1.421875 9.640625 6 
Q 4.390625 13.421875 4.390625 27.296875 
Q 4.390625 40.96875 9.5625 48.484375 
Q 14.75 56 24.125 56 
Q 29.046875 56 32.6875 53.609375 
Q 36.328125 51.21875 38.625 46.484375 
L 38.625 54.6875 
L 52.875 54.6875 
L 52.875 -20.796875 
L 38.625 -20.796875 
z
" id="DejaVuSansMono-Bold-113"/>
        <path d="M 18.890625 22.796875 
L 18.890625 64.984375 
L 4.390625 64.984375 
L 4.390625 75.984375 
L 33.203125 75.984375 
L 33.203125 22.796875 
Q 33.203125 16.359375 35.203125 13.671875 
Q 37.203125 10.984375 42 10.984375 
L 53.421875 10.984375 
L 53.421875 0 
L 37.984375 0 
Q 27.78125 0 23.328125 5.265625 
Q 18.890625 10.546875 18.890625 22.796875 
z
" id="DejaVuSansMono-Bold-108"/>
       </defs>
       <use xlink:href="#DejaVuSansMono-Bold-32"/>
       <use x="60.205078" xlink:href="#DejaVuSansMono-Bold-32"/>
       <use x="120.410156" xlink:href="#DejaVuSansMono-Bold-32"/>
       <use x="180.615234" xlink:href="#DejaVuSansMono-Bold-32"/>
       <use x="240.820312" xlink:href="#DejaVuSansMono-Bold-32"/>
       <use x="301.025391" xlink:href="#DejaVuSansMono-Bold-32"/>
       <use x="361.230469" xlink:href="#DejaVuSansMono-Bold-32"/>
       <use x="421.435547" xlink:href="#DejaVuSansMono-Bold-32"/>
       <use x="481.640625" xlink:href="#DejaVuSansMono-Bold-32"/>
       <use x="541.845703" xlink:href="#DejaVuSansMono-Bold-32"/>
       <use x="602.050781" xlink:href="#DejaVuSansMono-Bold-32"/>
       <use x="662.255859" xlink:href="#DejaVuSansMono-Bold-32"/>
       <use x="722.460938" xlink:href="#DejaVuSansMono-Bold-32"/>
       <use x="782.666016" xlink:href="#DejaVuSansMono-Bold-115"/>
       <use x="842.871094" xlink:href="#DejaVuSansMono-Bold-113"/>
       <use x="903.076172" xlink:href="#DejaVuSansMono-Bold-108"/>
      </g>
     </g>
    </g>
    <g id="ytick_4">
     <g id="line2d_19">
      <path clip-path="url(#p107831fe3b)" d="M 82.56 42.522574 
L 230.184475 42.522574 
" style="fill:none;stroke:#fdf6e3;"/>
     </g>
     <g id="line2d_20">
      <g>
       <use style="fill:#657b83;stroke:#657b83;stroke-width:0.8;" x="82.56" xlink:href="#mfc7d523001" y="42.522574"/>
      </g>
     </g>
     <g id="text_4">
      <!--           matlab -->
      <g style="fill:#657b83;" transform="translate(8.1325 45.182027)scale(0.07 -0.07)">
       <defs>
        <path d="M 33.6875 49.21875 
Q 35.296875 52.6875 37.78125 54.34375 
Q 40.28125 56 43.890625 56 
Q 50.984375 56 53.6875 51.109375 
Q 56.390625 46.234375 56.390625 30.8125 
L 56.390625 0 
L 44.671875 0 
L 44.671875 35.109375 
Q 44.671875 41.21875 43.75 43.265625 
Q 42.828125 45.3125 40.375 45.3125 
Q 37.9375 45.3125 36.953125 43.203125 
Q 35.984375 41.109375 35.984375 35.109375 
L 35.984375 0 
L 24.421875 0 
L 24.421875 35.109375 
Q 24.421875 41.109375 23.4375 43.203125 
Q 22.46875 45.3125 20.015625 45.3125 
Q 17.578125 45.3125 16.640625 43.265625 
Q 15.71875 41.21875 15.71875 35.109375 
L 15.71875 0 
L 4 0 
L 4 54.6875 
L 14.40625 54.6875 
L 14.40625 49.03125 
Q 15.625 52.25 18.3125 54.125 
Q 21 56 24.3125 56 
Q 27.640625 56 30.375 54.015625 
Q 33.109375 52.046875 33.6875 49.21875 
z
" id="DejaVuSansMono-Bold-109"/>
        <path d="M 33.6875 70.21875 
L 33.6875 54.6875 
L 52.390625 54.6875 
L 52.390625 43.703125 
L 33.6875 43.703125 
L 33.6875 17.828125 
Q 33.6875 14.15625 35.46875 12.5625 
Q 37.25 10.984375 41.40625 10.984375 
L 52.390625 10.984375 
L 52.390625 0 
L 40.375 0 
Q 28.078125 0 23.734375 3.921875 
Q 19.390625 7.859375 19.390625 18.5 
L 19.390625 43.703125 
L 5.421875 43.703125 
L 5.421875 54.6875 
L 19.390625 54.6875 
L 19.390625 70.21875 
z
" id="DejaVuSansMono-Bold-116"/>
       </defs>
       <use xlink:href="#DejaVuSansMono-Bold-32"/>
       <use x="60.205078" xlink:href="#DejaVuSansMono-Bold-32"/>
       <use x="120.410156" xlink:href="#DejaVuSansMono-Bold-32"/>
       <use x="180.615234" xlink:href="#DejaVuSansMono-Bold-32"/>
       <use x="240.820312" xlink:href="#DejaVuSansMono-Bold-32"/>
       <use x="301.025391" xlink:href="#DejaVuSansMono-Bold-32"/>
       <use x="361.230469" xlink:href="#DejaVuSansMono-Bold-32"/>
       <use x="421.435547" xlink:href="#DejaVuSansMono-Bold-32"/>
       <use x="481.640625" xlink:href="#DejaVuSansMono-Bold-32"/>
       <use x="541.845703" xlink:href="#DejaVuSansMono-Bold-32"/>
       <use x="602.050781" xlink:href="#DejaVuSansMono-Bold-109"/>
       <use x="662.255859" xlink:href="#DejaVuSansMono-Bold-97"/>
       <use x="722.460938" xlink:href="#DejaVuSansMono-Bold-116"/>
       <use x="782.666016" xlink:href="#DejaVuSansMono-Bold-108"/>
       <use x="842.871094" xlink:href="#DejaVuSansMono-Bold-97"/>
       <use x="903.076172" xlink:href="#DejaVuSansMono-Bold-98"/>
      </g>
     </g>
    </g>
    <g id="ytick_5">
     <g id="line2d_21">
      <path clip-path="url(#p107831fe3b)" d="M 82.56 19.214191 
L 230.184475 19.214191 
" style="fill:none;stroke:#fdf6e3;"/>
     </g>
     <g id="line2d_22">
      <g>
       <use style="fill:#657b83;stroke:#657b83;stroke-width:0.8;" x="82.56" xlink:href="#mfc7d523001" y="19.214191"/>
      </g>
     </g>
     <g id="text_5">
      <!--           python -->
      <g style="fill:#657b83;" transform="translate(8.1325 21.873644)scale(0.07 -0.07)">
       <defs>
        <path d="M 21.578125 7.71875 
L 21.578125 -20.796875 
L 7.328125 -20.796875 
L 7.328125 54.6875 
L 21.578125 54.6875 
L 21.578125 46.484375 
Q 23.828125 51.21875 27.484375 53.609375 
Q 31.15625 56 36.078125 56 
Q 45.453125 56 50.625 48.484375 
Q 55.8125 40.96875 55.8125 27.296875 
Q 55.8125 13.421875 50.5625 6 
Q 45.3125 -1.421875 35.59375 -1.421875 
Q 31.203125 -1.421875 27.703125 0.84375 
Q 24.21875 3.125 21.578125 7.71875 
z
M 41.5 27.390625 
Q 41.5 35.296875 38.859375 39.78125 
Q 36.234375 44.28125 31.59375 44.28125 
Q 26.953125 44.28125 24.265625 39.78125 
Q 21.578125 35.296875 21.578125 27.390625 
Q 21.578125 19.484375 24.265625 14.984375 
Q 26.953125 10.5 31.59375 10.5 
Q 36.234375 10.5 38.859375 14.984375 
Q 41.5 19.484375 41.5 27.390625 
z
" id="DejaVuSansMono-Bold-112"/>
        <path d="M 34.71875 -5.90625 
Q 31.84375 -13.625 27.8125 -17.15625 
Q 23.78125 -20.703125 18.015625 -20.703125 
L 6.203125 -20.703125 
L 6.203125 -9.8125 
L 12.015625 -9.8125 
Q 16.40625 -9.8125 18.453125 -8.328125 
Q 20.515625 -6.84375 22.609375 -1.421875 
L 23.6875 1.515625 
L 2.875 54.6875 
L 17.921875 54.6875 
L 30.421875 19.1875 
L 42.390625 54.6875 
L 57.421875 54.6875 
z
" id="DejaVuSansMono-Bold-121"/>
        <path d="M 52.296875 35.5 
L 52.296875 0 
L 38.09375 0 
L 38.09375 33.296875 
Q 38.09375 39.203125 36.40625 41.734375 
Q 34.71875 44.28125 30.90625 44.28125 
Q 27 44.28125 24.796875 40.84375 
Q 22.609375 37.40625 22.609375 31.296875 
L 22.609375 0 
L 8.40625 0 
L 8.40625 75.984375 
L 22.609375 75.984375 
L 22.609375 46.484375 
Q 24.125 51.03125 27.78125 53.515625 
Q 31.453125 56 36.625 56 
Q 44.390625 56 48.34375 50.84375 
Q 52.296875 45.703125 52.296875 35.5 
z
" id="DejaVuSansMono-Bold-104"/>
        <path d="M 30.078125 44.390625 
Q 24.953125 44.390625 22.015625 39.875 
Q 19.09375 35.359375 19.09375 27.296875 
Q 19.09375 19.234375 22.015625 14.71875 
Q 24.953125 10.203125 30.078125 10.203125 
Q 35.25 10.203125 38.171875 14.71875 
Q 41.109375 19.234375 41.109375 27.296875 
Q 41.109375 35.359375 38.171875 39.875 
Q 35.25 44.390625 30.078125 44.390625 
z
M 4.78125 27.296875 
Q 4.78125 40.53125 11.640625 48.265625 
Q 18.5 56 30.078125 56 
Q 41.703125 56 48.5625 48.265625 
Q 55.421875 40.53125 55.421875 27.296875 
Q 55.421875 14.0625 48.5625 6.3125 
Q 41.703125 -1.421875 30.078125 -1.421875 
Q 18.5 -1.421875 11.640625 6.3125 
Q 4.78125 14.0625 4.78125 27.296875 
z
" id="DejaVuSansMono-Bold-111"/>
        <path d="M 52.296875 35.5 
L 52.296875 0 
L 38.09375 0 
L 38.09375 33.296875 
Q 38.09375 39.265625 36.40625 41.828125 
Q 34.71875 44.390625 30.90625 44.390625 
Q 27.046875 44.390625 24.828125 40.921875 
Q 22.609375 37.453125 22.609375 31.296875 
L 22.609375 0 
L 8.40625 0 
L 8.40625 54.6875 
L 22.609375 54.6875 
L 22.609375 46.484375 
Q 24.125 51.03125 27.78125 53.515625 
Q 31.453125 56 36.625 56 
Q 44.390625 56 48.34375 50.84375 
Q 52.296875 45.703125 52.296875 35.5 
z
" id="DejaVuSansMono-Bold-110"/>
       </defs>
       <use xlink:href="#DejaVuSansMono-Bold-32"/>
       <use x="60.205078" xlink:href="#DejaVuSansMono-Bold-32"/>
       <use x="120.410156" xlink:href="#DejaVuSansMono-Bold-32"/>
       <use x="180.615234" xlink:href="#DejaVuSansMono-Bold-32"/>
       <use x="240.820312" xlink:href="#DejaVuSansMono-Bold-32"/>
       <use x="301.025391" xlink:href="#DejaVuSansMono-Bold-32"/>
       <use x="361.230469" xlink:href="#DejaVuSansMono-Bold-32"/>
       <use x="421.435547" xlink:href="#DejaVuSansMono-Bold-32"/>
       <use x="481.640625" xlink:href="#DejaVuSansMono-Bold-32"/>
       <use x="541.845703" xlink:href="#DejaVuSansMono-Bold-32"/>
       <use x="602.050781" xlink:href="#DejaVuSansMono-Bold-112"/>
       <use x="662.255859" xlink:href="#DejaVuSansMono-Bold-121"/>
       <use x="722.460938" xlink:href="#DejaVuSansMono-Bold-116"/>
       <use x="782.666016" xlink:href="#DejaVuSansMono-Bold-104"/>
       <use x="842.871094" xlink:href="#DejaVuSansMono-Bold-111"/>
       <use x="903.076172" xlink:href="#DejaVuSansMono-Bold-110"/>
      </g>
     </g>
    </g>
   </g>
   <g id="patch_3">
    <path clip-path="url(#p107831fe3b)" d="M 84.095295 24.668353 
L 199.124286 24.668353 
Q 200.600531 24.668353 200.600531 15.345 
L 200.600531 23.083383 
Q 200.600531 13.76003 199.124286 13.76003 
L 84.095295 13.76003 
Q 82.61905 13.76003 82.61905 23.083383 
L 82.61905 15.345 
Q 82.61905 24.668353 84.095295 24.668353 
z
" style="fill:#dc322f;"/>
   </g>
   <g id="patch_4">
    <path clip-path="url(#p107831fe3b)" d="M 84.095295 47.976735 
L 184.361838 47.976735 
Q 185.838083 47.976735 185.838083 38.653382 
L 185.838083 46.391765 
Q 185.838083 37.068412 184.361838 37.068412 
L 84.095295 37.068412 
Q 82.61905 37.068412 82.61905 46.391765 
L 82.61905 38.653382 
Q 82.61905 47.976735 84.095295 47.976735 
z
" style="fill:#dc322f;"/>
   </g>
   <g id="patch_5">
    <path clip-path="url(#p107831fe3b)" d="M 84.095295 71.285118 
L 154.836943 71.285118 
Q 156.313188 71.285118 156.313188 61.961765 
L 156.313188 69.700148 
Q 156.313188 60.376795 154.836943 60.376795 
L 84.095295 60.376795 
Q 82.61905 60.376795 82.61905 69.700148 
L 82.61905 61.961765 
Q 82.61905 71.285118 84.095295 71.285118 
z
" style="fill:#dc322f;"/>
   </g>
   <g id="patch_6">
    <path clip-path="url(#p107831fe3b)" d="M 84.095295 94.5935 
L 125.312048 94.5935 
Q 126.788293 94.5935 126.788293 85.270147 
L 126.788293 93.00853 
Q 126.788293 83.685177 125.312048 83.685177 
L 84.095295 83.685177 
Q 82.61905 83.685177 82.61905 93.00853 
L 82.61905 85.270147 
Q 82.61905 94.5935 84.095295 94.5935 
z
" style="fill:#dc322f;"/>
   </g>
   <g id="patch_7">
    <path clip-path="url(#p107831fe3b)" d="M 84.095295 117.901883 
L 125.312048 117.901883 
Q 126.788293 117.901883 126.788293 108.57853 
L 126.788293 116.316913 
Q 126.788293 106.99356 125.312048 106.99356 
L 84.095295 106.99356 
Q 82.61905 106.99356 82.61905 116.316913 
L 82.61905 108.57853 
Q 82.61905 117.901883 84.095295 117.901883 
z
" style="fill:#dc322f;"/>
   </g>
   <g id="patch_8">
    <path d="M 82.56 124.101913 
L 82.56 7.56 
" style="fill:none;stroke:#eee8d5;stroke-linecap:square;stroke-linejoin:miter;stroke-width:0.8;"/>
   </g>
   <g id="patch_9">
    <path d="M 230.184475 124.101913 
L 230.184475 7.56 
" style="fill:none;stroke:#eee8d5;stroke-linecap:square;stroke-linejoin:miter;stroke-width:0.8;"/>
   </g>
   <g id="patch_10">
    <path d="M 82.56 124.101913 
L 230.184475 124.101913 
" style="fill:none;stroke:#eee8d5;stroke-linecap:square;stroke-linejoin:miter;stroke-width:0.8;"/>
   </g>
   <g id="patch_11">
    <path d="M 82.56 7.56 
L 230.184475 7.56 
" style="fill:none;stroke:#eee8d5;stroke-linecap:square;stroke-linejoin:miter;stroke-width:0.8;"/>
   </g>
  </g>
 </g>
 <defs>
  <clipPath id="p107831fe3b">
   <rect height="116.541913" width="147.624475" x="82.56" y="7.56"/>
  </clipPath>
 </defs>
</svg>
